# xmcd
#
# Track frame offsets:
#	150
#	13760
#	27514
#	42435
#	58343
#	72442
#	85225
#	101559
#	115850
#	130615
#	145503
#	158796
#
# Disc length: 2337 seconds
#
# Revision: 0
# Processed by: cddbd v1.5.2PL0 Copyright (c) Steve Scherf et al.
# Submitted via: dBpowerAMP V4.0
#
DISCID=a2091f0c
DTITLE=Hellbilly Boys - Hellbilly Boys
DYEAR=2008
DGENRE=Hellbilly
TTITLE0=Backseat education
TTITLE1=Honky Tonk train
TTITLE2=Me and the devil
TTITLE3=Understand
TTITLE4=Tennessee whiskey
TTITLE5=Crazy groove
TTITLE6=Hellbilly heaven
TTITLE7=Wasted years
TTITLE8=Tuesday night
TTITLE9=Southern women
TTITLE10=Dead punk boogie
TTITLE11=Down the road
EXTD=
EXTT0=
EXTT1=
EXTT2=
EXTT3=
EXTT4=
EXTT5=
EXTT6=
EXTT7=
EXTT8=
EXTT9=
EXTT10=
EXTT11=
PLAYORDER=
